<?xml version="1.0" encoding="UTF-8"?>
<svg id="Layer_2" data-name="Layer 2" xmlns="http://www.w3.org/2000/svg" viewBox="0 0 205.08 338">
  <defs>
    <style>
      .cls-1 {
        fill: #ecdec7;
      }
    </style>
  </defs>
  <g id="Layer_1-2" data-name="Layer 1">
    <path class="cls-1" d="M46,45c-1.84,4.22-.74,7.95-1.01,12.49-1.94,32.46.79,66.09,1.05,98.97.48,60.5-.45,121.05-.04,181.54H1.5c-.11,0-1.5-1.39-1.5-1.5V1.5c0-.11,1.39-1.5,1.5-1.5h119.5c.26,0,.52,3.39,1.44,5.08s2.1,2.23,2.56,2.92c27.82,42.02,52.24,86.3,79,129l-.05,36.57,1.05,2.43c0,52.84-.04,105.7.05,158.55.22,1.02-.72,3.45-1.55,3.45h-43.5v-185.5s-1,.5-1,.5c-15.26-23.93-29.05-48.88-44-73,2.48-.95-.39-2.67-1.01-3.49-6.91-9.1-12.28-22.54-18.97-30.82-.78-.96-1.88-.57-2.02-.69-.12-.1.48-1.36-.73-1.97-2.35-1.16-8.95-1.13-11.81-1.07-1.31.03-2.58,1.03-2.96,1.03h-20c-.68,0-2.57-1.08-4.93-1.04-1.69.03-5.36.82-6.57,2.04-.16.16.13.7,0,1Z"/>
  </g>
</svg>