<?xml version="1.0" encoding="UTF-8"?>
<svg id="Layer_2" data-name="Layer 2" xmlns="http://www.w3.org/2000/svg" viewBox="0 0 259.3 354.01">
  <defs>
    <style>
      .cls-1 {
        fill: #ecdec7;
      }
    </style>
  </defs>
  <g id="Layer_1-2" data-name="Layer 1">
    <path class="cls-1" d="M242,335.01c8.26,4.45,19.25,7.31,17,19l-140.01-1L117.99,1l52.01-1c.04,3.66-.06,7.35,0,11.01-1.56.41-1.5,3.68,0,4,.02,2.66-.01,5.34,0,8-1.77,6.17-1.09,13.97-1.02,20.51.02,1.69-.64,4.45,1.02,5.49,0,.67,0,1.33,0,2-3.03-.56-1.92,1.53-2,3.45-1.28,32.37,1.07,64.82,1.05,97.09-.03,46.68-4.56,99.86-1.1,146,.62,8.25,1.94,4.3,4.05,4.45s26.8,10.53,27,12c.01.08-.88.54-1.01.98,13.38,5.79,27.24,12.19,40.1,19.44.97.55,3.27,2.7,3.92.59Z"/>
    <polygon class="cls-1" points="47.9 3.11 48 351.01 0 352 .99 3 47.9 3.11"/>
  </g>
</svg>