<?xml version="1.0" encoding="UTF-8"?>
<svg id="Layer_2" data-name="Layer 2" xmlns="http://www.w3.org/2000/svg" viewBox="0 0 252.99 315">
  <defs>
    <style>
      .cls-1 {
        fill: #efe3ce;
      }
    </style>
  </defs>
  <g id="Layer_1-2" data-name="Layer 1">
    <path class="cls-1" d="M139.99,77c-.13-.13.29-1.35-.19-1.76-2.38-2.06-55.31.77-62.88.2l-.8,1.2.36,193.36h36.5c-.32.98,1,2.17,1,2.5v41c0,.11-1.39,1.5-1.5,1.5H.99L0,0l214.56.93.35,265.63c-.3,1.99,1.92,1.27,2.08,1.43.13.13-.29,1.35.19,1.76,1.46,1.27,31.12-.47,35.81.24v45h-111.01s.09-236.57.09-236.57c.3-1.99-1.92-1.27-2.08-1.43Z"/>
  </g>
</svg>