<?xml version="1.0" encoding="UTF-8"?>
<svg id="Layer_2" data-name="Layer 2" xmlns="http://www.w3.org/2000/svg" viewBox="0 0 324.21 328.03">
  <defs>
    <style>
      .cls-1 {
        fill: #efe3ce;
      }
    </style>
  </defs>
  <g id="Layer_1-2" data-name="Layer 1">
    <path class="cls-1" d="M2.65,328.03c-2.79-.84-3.74-11.08-1.08-13.08l48.6-34.62-.06-213.84C59.14-23.85,153.73,5.63,216.38,1.31c33.64,4.96,56.6,33.99,58.82,67.18l-.05,211.05,1.01,1.99,46.02,32.98c2.8,3.58,1.84,9.27,1.97,13.53h-127l-1.05-5.45-.07-226.92c-2.1-22.71-25.49-33.09-45.88-27.12-16.92,4.95-21.12,20.15-22.05,35.95-4.12,70.58,2.3,146.16,1.13,217.06l-1.08,6.49H2.65Z"/>
  </g>
</svg>