<?xml version="1.0" encoding="UTF-8"?>
<svg id="Layer_2" data-name="Layer 2" xmlns="http://www.w3.org/2000/svg" viewBox="0 0 276.13 281.89">
  <defs>
    <style>
      .cls-1 {
        fill: #ebe0cc;
      }

      .cls-2 {
        fill: #f2eee6;
      }
    </style>
  </defs>
  <g id="Layer_1-2" data-name="Layer 1">
    <path class="cls-1" d="M176.13,27.85c1.67,1.57,4.48,4.35,6,6,.58.63,1.3,1.23,2,2,3.54,7.37,8.97,13.5,12.53,20.97,2.57,5.39,5.05,16.7,7.59,20.41,1.25,1.82,8.51,5.6,10.99,7.01.71.4,3.59,2.29,3.88.62,11.91,7.16,24.21,13.58,36,21,5.16,3.25,10.67,7.06,16.14,10.41,2,1.22,3.56-.53,2.86,3.58l-67.62,19.94c-1.44.04-1.85,1.66-2.39,2.08-.33.26-.71.68-1,1-1.96,2.15-4.14,4.02-3.88,7.33l.88.67c-9.85,21.19-21.52,37.15-41,50-2.43,1.6-5,2.44-5,6.5v72.5H43.13v-86.5c0-1.14-4.03-5.86-6-5.5-1.53-1.62-3.31-3.2-5-5l-1-1c-.57-.62-1.28-1.2-2-2,.1-1.33-.46-2.22-1.51-2.98l-.49.98c-1.74-2.01-3.39-3.86-5-6,2.45-.93-.36-2.67-1.01-3.5C4.55,147.01.48,120.21,1.13,93.85c0-.33-.01-.67,0-1,3.72-19.33,9.62-35.89,21-52,4.46-6.32,8.96-10.9,15-16,.41,1.99,2.33-.26,2.91-.77C69.35-1.31,120.44-4.94,154.45,13.03c6.93,3.66,12.49,9.61,19.68,12.82.73.68,1.34,1.38,2,2ZM155.13,133.85c.79-.46,2.58.99,1.99-1.49l-.99-.51c.32-.28.66-.68,1-1,3.45-3.24,5.31-6.41,6.71-11.79,9.65-37.23-26.38-70.64-62.59-55.59-38.02,15.8-37.61,71.64,1.61,86.16,17.75,6.57,40.85,1.9,51.27-14.77.35-.28.6-.77,1-1Z"/>
    <path class="cls-2" d="M37.13,187.85c2.6,2.76,4.57,3.18,5,7.48,2.57,25.52-4.41,56.77-1.05,82.06.34,2.53.83,3.91,3.57,4.43l105.02.08c3.66-.33,6.03-.36,6.51-4.49,2.54-21.74-2.93-49.66-.11-71.11.37-2.78,1.62-3.43,3.06-5.45-2.43,1.6-5,2.44-5,6.5v72.5H43.13v-86.5c0-1.14-4.03-5.86-6-5.5Z"/>
    <path class="cls-2" d="M174.13,25.85C136.45-9.1,75.75-7.79,37.13,24.85c.41,1.99,2.33-.26,2.91-.77C69.35-1.31,120.44-4.94,154.45,13.03c6.93,3.66,12.49,9.61,19.68,12.82Z"/>
    <path class="cls-2" d="M255.13,105.85c5.16,3.25,10.67,7.06,16.14,10.41,2,1.22,3.56-.53,2.86,3.58l-67.62,19.94c-1.44.04-1.85,1.66-2.39,2.08l70.99-21.51c1.27-.84,1.21-1.22.55-2.51-1.7-3.32-16.44-9.92-20.54-11.97Z"/>
    <path class="cls-2" d="M1.13,93.85c-1.66,1.04-1,3.79-1.02,5.49-.36,28.7,4.69,49.51,22.02,72.51,2.45-.93-.36-2.67-1.01-3.5C4.55,147.01.48,120.21,1.13,93.85Z"/>
    <path class="cls-2" d="M1.13,92.85c3.72-19.33,9.62-35.89,21-52-9.8,9.65-16.6,25.36-19.7,38.8-1.21,5.22-1.15,8.38-1.3,13.2Z"/>
    <path class="cls-2" d="M184.13,35.85c3.54,7.37,8.97,13.5,12.53,20.97,2.57,5.39,5.05,16.7,7.59,20.41,1.25,1.82,8.51,5.6,10.99,7.01.71.4,3.59,2.29,3.88.62-2.69-1.62-10.63-5.35-12.04-6.72-2.93-2.84-5.69-14.48-7.78-18.95-4.15-8.87-8.59-16.11-15.18-23.32Z"/>
    <path class="cls-2" d="M200.13,150.85c1.21-2.6,2.6-5.09,3-8-1.96,2.15-4.14,4.02-3.88,7.33l.88.67Z"/>
    <path class="cls-2" d="M27.13,177.85c.61.7,1.37,1.3,2,2,.1-1.33-.46-2.22-1.51-2.98l-.49.98Z"/>
    <path class="cls-2" d="M182.13,33.85l-6-6c1.67,1.57,4.48,4.35,6,6Z"/>
    <path class="cls-2" d="M32.13,182.85l-1-1c.32.35.68.66,1,1Z"/>
    <path class="cls-2" d="M157.13,130.85c3.45-3.24,5.31-6.41,6.71-11.79,9.65-37.23-26.38-70.64-62.59-55.59-38.02,15.8-37.61,71.64,1.61,86.16,17.75,6.57,40.85,1.9,51.27-14.77-3.85,3.06-6.78,7.55-11.42,10.02-25.53,13.61-57.93,3.47-66.08-25.02-10.01-35.01,19.34-66.55,54.95-56.95,29.5,7.95,40.6,42.28,25.56,67.94Z"/>
    <path class="cls-2" d="M155.13,133.85c.79-.46,2.58.99,1.99-1.49l-.99-.51c-.69.59-1.03,1.05-1,2Z"/>
  </g>
</svg>