<?xml version="1.0" encoding="UTF-8"?>
<svg id="Layer_2" data-name="Layer 2" xmlns="http://www.w3.org/2000/svg" viewBox="0 0 270.6 288.09">
  <defs>
    <style>
      .cls-1 {
        fill: #ebe0cc;
      }

      .cls-2 {
        fill: #f2eee6;
      }
    </style>
  </defs>
  <g id="Layer_1-2" data-name="Layer 1">
    <path class="cls-1" d="M238.25,127.1c-1.78.67-.16,3.13.25,4.24,13.82,36.72,12.9,75.85-9.83,108.69-1.99,2.88-5.59,5.39-6.43,9.08-.32.34-.66.67-1,1-2.53,2.49-2.97,1.64-5,5-3.65,2.21-2.06,1.87-4,4-.68.75-1.32,1.31-2,2-16.44,10.72-33.03,20.37-52.79,23.7-31.18,5.26-59.13-.69-85.5-17.91-.88-.57-3.08-2.98-3.71-.8-1.74-1.27-3.4-2.55-5-4l1-.99c-.61-.14-1.63.18-2-.01-1.87-.97-1.94-1.95-3-3-2.28-2.27-4.79-4.69-7-7-.33-.34-.68-.65-1-1-5.73-8.99-12-16.95-16.46-27.04-13.41-30.32-14-61.05-1.85-91.78.44-1.11,2.17-3.45.31-4.18,2.14-4.58,4.88-13.03,10.48-13l185.08-.06c4.17.51,7.58,9.15,9.44,13.06Z"/>
    <path class="cls-1" d="M206.25,14.1c1.33,1.18,1.83,1.72,3,3l6.5,11c4.13,11.6,5.72,24.24,6.49,36.51.2,3.23-1.54,16.21,1.01,17.49.21.1.64-.05,1,0,.86,5.87,9.79,2.01,13.46,1.96,7.01-.1,15.2-.2,22.07-.01,11.47.3,7.78,3.07,7.44,10.61-.22,4.96,2.99,8.56-4.71,10.21-2.54.54-7.27,2.26-7.69,2.32-8.94,1.17-25.85-.11-36.03-.04-38.62.27-77.64-.2-116-.09-28.82.09-59.49,3-88.02.03-2.64-.28-9.92-1.65-11.52-3.48-2.04-2.33-3.52-16.29,0-18.01,5.3-1.49,42.32-.64,43.57-2.43.93-1.34.83-27.44,1.45-32.55l3.99-21.51c.91-2.08,4.02-8.42,6-9,.06-.02.39.88.84.92C74.6-.75,102.45,3.16,125.75,3.16c21.77,0,44.22-3.55,65.48,3.46l15.02,7.48Z"/>
    <path class="cls-2" d="M52.25,29.1l-3.99,21.51c-.62,5.11-.52,31.21-1.45,32.55-1.25,1.79-38.27.94-43.57,2.43-3.52,1.72-2.05,15.68,0,18.01,1.6,1.83,8.88,3.2,11.52,3.48,28.54,2.98,59.21.06,88.02-.03,38.36-.12,77.38.35,116,.09,10.18-.07,27.09,1.21,36.03.04.42-.06,5.15-1.77,7.69-2.32,7.69-1.65,4.48-5.25,4.71-10.21.34-7.54,4.04-10.3-7.44-10.61-6.87-.18-15.06-.08-22.07.01-3.67.05-12.6,3.91-13.46-1.96,8.28,1.19,19.71-.51,28.54-.04,3.32.18,12.17.93,14.73,2.07.43.19,2.7,2.68,2.79,3.44.71,5.63.45,14.84-5.14,17.96-4.64,2.59-15.72,3.34-21.37,3.63-73.53,3.76-150.23-2.96-224.1,0-5.94-.41-17.66-1.73-19.24-8.76-.67-2.99-.89-13.45,1.23-15.35,5.5-4.92,42.17.52,44.42-3.08.34-17.69-1.11-36.26,6.14-52.86Z"/>
    <path class="cls-2" d="M210.25,261.1c-35.89,36.56-102.81,33.72-142,5,.63-2.18,2.83.22,3.71.8,26.37,17.21,54.33,23.17,85.5,17.91,19.76-3.34,36.35-12.99,52.79-23.7Z"/>
    <path class="cls-2" d="M206.25,14.1l-15.02-7.48c-21.26-7.01-43.71-3.45-65.48-3.46-23.31,0-51.16-3.92-66.66,17.85-.45-.04-.78-.94-.84-.92,5.19-8,15.11-13.63,24.22-16.28C99.58-1.15,153.33-.35,172.74,1.11c12.12.91,24.39,4.84,33.51,12.99Z"/>
    <path class="cls-2" d="M33.25,127.1c1.85.73.12,3.07-.31,4.18-12.15,30.74-11.56,61.46,1.85,91.78,4.46,10.09,10.74,18.05,16.46,27.04-30.04-32.71-36.81-82.73-18-123Z"/>
    <path class="cls-2" d="M222.25,249.1c.84-3.68,4.43-6.2,6.43-9.08,22.73-32.83,23.65-71.96,9.83-108.69-.42-1.11-2.03-3.57-.25-4.24,18.52,39.09,14.15,89.97-16,122Z"/>
    <path class="cls-2" d="M223.25,82.1c-2.55-1.28-.81-14.26-1.01-17.49-.77-12.27-2.35-24.91-6.49-36.51l-6.5-11c16.29,17.78,13.19,42.47,14,65Z"/>
    <path class="cls-2" d="M221.25,250.1c-1.16.91-2.5,4.26-3.25,4.78-.69.48-1.54.09-1.75.22-1.03,1.71-.68,3.37-4,4,1.94-2.13.35-1.79,4-4,2.03-3.36,2.47-2.51,5-5Z"/>
    <path class="cls-2" d="M62.25,261.1c.36.19,1.39-.13,2,.01l-1,.99c-.35-.32-.67-.67-1-1Z"/>
    <path class="cls-2" d="M59.25,258.1l-7-7c2.21,2.31,4.72,4.73,7,7Z"/>
  </g>
</svg>