<?xml version="1.0" encoding="UTF-8"?>
<svg id="Layer_2" data-name="Layer 2" xmlns="http://www.w3.org/2000/svg" viewBox="0 0 193 139.73">
  <defs>
    <style>
      .cls-1 {
        fill: #eadec7;
      }
    </style>
  </defs>
  <g id="Layer_1-2" data-name="Layer 1">
    <path class="cls-1" d="M42,0H0s0,52.5,0,52.5c0,3.48,10.37,1.92,12.14,2.09,34.75,3.28,66.83,12.82,92.86,36.41.35.31.66.68,1,1,.73.69,1.31,1.3,2,2,1.21,1.23,3.03,2.91,4,4,1.15,1.29,2.53,2.23,4,4,4.5,5.41,9.65,13.17,13.17,19.33,2.54,4.44,5.08,12.32,7.38,15.63,1.52,2.19,4.19,2.81,6.66,2.78,14.05-.17,31.46-7.03,46.08-6.95,2.15-.49,2.51-1.32,3.71-2.79.1-12.51-5.73-24.49-10.98-35.51-.38-.79-2.56-4.14-1.02-4.49-5.28-9.43-12.01-19.61-20-27-1.05,2.58-1.05-.67-2-2-2.37-3.33-5.18-5.27-8-8-1.27.14-4.18-1.46-2-2C120.03,24.53,80.71,6.48,42,0Z"/>
  </g>
</svg>