<?xml version="1.0" encoding="UTF-8"?>
<svg id="Layer_2" data-name="Layer 2" xmlns="http://www.w3.org/2000/svg" viewBox="0 0 180.48 153.01">
  <defs>
    <style>
      .cls-1 {
        fill: #eadec7;
      }
    </style>
  </defs>
  <g id="Layer_1-2" data-name="Layer 1">
    <path class="cls-1" d="M6.07,6.01c-.33.03-.67-.02-1,0-2.66,1.69-3.6.96-4.06,4.44C-1.45,29.21,3.77,52.38.03,71.46c-.28,27.25,1.77,54.27,1.04,81.54h175.5c1.62,0,3.19-11.55,3.37-13.63,1.9-22.2-1.34-37.5-8.57-58.19-.32-.92-1.67-3.74-.3-4.19-5.55-12.23-12.28-21.9-21-32l-.49.98c-1.63-1.3-2.76-3.05-3.51-4.98-.32-.34-.67-.66-1-1l-1-1c-.68-.69-1.28-1.32-2-2-1.39.12-3.53-.73-2-2-16.13-14.64-32.73-24.05-54-30-2.69,1.45-7.99-.09-11.06-.64-4.53-.81-8.8-1.82-13.44-2.4-1.87-.24-4.06,1.27-3.5-1.95-.33-.02-.67.02-1,0-6.61,2.18-14.51.53-21.49,1.01C25.65,1.7,15.48,5.06,6.07,6.01Z"/>
  </g>
</svg>