<?xml version="1.0" encoding="UTF-8"?>
<svg id="Layer_2" data-name="Layer 2" xmlns="http://www.w3.org/2000/svg" viewBox="0 0 269.5 318.05">
  <defs>
    <style>
      .cls-1 {
        fill: #e9d8c1;
      }
    </style>
  </defs>
  <g id="Layer_1-2" data-name="Layer 1">
    <path class="cls-1" d="M47.44,35.01c3.26-5.47,2.14-10.91,4.16-14.33.81-1.37,2.55-1.55,2.72-1.85.45-.78-1.16-2.44-.45-3.84.35-.7,9.35-9.85,10.67-10.47,1.02-.47,2.27.41,2.72.21.21-.1.27-1.63,1.39-2.06,2.97-1.15,12.17-2.89,15.26-2.58,3.15.31,11.29,4.1,13.57,6.37,3.36,3.35,2.74,9.26,7.54,9.45l59.93.1c1.25-.06-.53-.96-.5-1,.66-.99,2.05-1.86,3-3,3.21-3.86,5.91-8.08,10.79-9.91,1.64-.62,9.13-2.28,10.64-2.09.42.05,7.77,1.66,8.17,1.8,1.44.49,1.3,1.9,2.15,2.16,1.2.36,2.81-.39,4.03.28.51.28,7.55,6.32,8.23,7.25,1.29,1.76,3.76,5.26,4.69,6.71.98,1.53,2.8,13.29,4,16.6.96,2.64,3.79,5.7,4.12,7.94.2,1.35-.95,3.12-.83,3.25.2.21,3.65.51,5.43,2.12,5.89,5.34,5.31,9.22,7.78,15.22.6,1.47,2.29,1.37,2.61,2.16.66,1.62,1.04,8.89,1.65,11.55,1.43,6.21,3.12,12.98,4.48,17.7.9,3.13.15,7.14.63,9.39,5.67,26.63,15.53,53.32,20.06,80.53.88,5.27,3.77,28.4,3.41,32.78-.05.62-1.97.46-2.04,1.14-.27,2.58,1.13,9.46.88,12.81-1.71,23.61-12.45,46.73-24.4,67.58l-10.47,12.03c-.85.57-1.4.67-2,1-5.96,3.31-12.66,5.32-19.46,6.04l-180.05-.04c-9.24-.17-4.06-13.06-5.69-19.29l-4.79-5.71c-5.13-8.31-9.15-13.55-13-23,1.46-1.23.34-5.72-.08-7.26-.75-2.72-3.44-8.25-4.48-12.46-7.36-29.79-2.96-59.92,2.6-88.59.16-.83,1.84-.6,1.81-1.15-.06-1.02-1.43-2.04-.41-3.58.45-.67,2.22-.75,2.45-1.07.13-.18-1.09-2.62-.89-4.3.88-7.39,4.67-16.12,6.53-23.33,2.73-10.6,4.73-20.99,6.93-31.59,2.84-13.66,5.35-31.5,12.27-42.42,2.16-3.41,4.17-5.7,6.28-9.25,1.98-3.33,4.02-6.67,6-10Z"/>
  </g>
</svg>