<?xml version="1.0" encoding="UTF-8"?>
<svg id="Layer_2" data-name="Layer 2" xmlns="http://www.w3.org/2000/svg" viewBox="0 0 169.04 352">
  <defs>
    <style>
      .cls-1 {
        fill: #e9d8c1;
      }
    </style>
  </defs>
  <g id="Layer_1-2" data-name="Layer 1">
    <path class="cls-1" d="M48.04,106c.03.1-1.34,1.02.37,2.03,1,.59,1.86,1.13,3.09,1.02l68.04-.05c1.24-.05-.53-.96-.5-1,.66-.92,3.08-3.34,4-4,.05-.03.96,1.74,1,.5v-39.5s16,0,16,0c1.08,17.37-2.33,36.2,2,53-.03.33.04.67,0,1-.18,1.63-1.78,3.13-1.76,3.52.04,1.16,7.39,18.24,8.56,21.18,5.01,12.64,10.76,20.58,18.19,32.61.61.98,2.01.59,2.01.69v173.5c0,.11-1.39,1.5-1.5,1.5H2.54c-.36,0-1.62-1.02-2.34-1.17-.4-56.04.17-112.31-.2-168.38,1.48-4.44,3.29-9.23,6.94-12.29l2.11-6.17c10.49-18.19,18.69-38.16,20.04-59.46.46-7.29-1.5-35.55.45-39.55,1.47-3.02,15.5-3.1,17.01,0,2.78,5.73-1.2,31.12,1.5,41ZM105.04,146c-.33.27-.7.68-1,1-.72.76-2.37,1.3-2.98,2.51l.98.49c-25,32.83-52.78,63.53-80,94.5-6.58,7.55,3.71,20.44,12.17,17.21,7.47-2.86,19.94-23.4,26.26-29.78,4.98-3.71,8.57,4.14,12.07,7.08,1.74,1.47,11.17,7.28,11.5,9,.02.08-.88.5-.95.88,2.64,2.63,11.17,1.35,12.95-.9.56-.7-1.01-.91-1-.98.35-1.99,25.06-23.94,29-28,5.08-5.25,9.45-9.81,13.08-15.2,6.35-9.41,16.36-17.31,8.61-29.5l-7.69-5.3c-3.46-3.38-7.38-6.75-11-10,1.59-.7-2.85-4.08-3.42-4.58-2.61-2.33-10.26-10.06-12.63-10.9-4.63-1.64-3.94.87-5.95,2.48Z"/>
    <polygon class="cls-1" points="61.04 62 61.54 0 109.04 0 108.91 60.86 61.04 62"/>
  </g>
</svg>