<?xml version="1.0" encoding="UTF-8"?>
<svg id="Layer_2" data-name="Layer 2" xmlns="http://www.w3.org/2000/svg" viewBox="0 0 272.02 286.9">
  <defs>
    <style>
      .cls-1 {
        fill: #e9d8c1;
      }
    </style>
  </defs>
  <g id="Layer_1-2" data-name="Layer 1">
    <path class="cls-1" d="M28.01,45c2.99,2.24,5.1-1.77,6.25-2.28,14.17-6.23,40.97-13.05,48.04-27.96,1.08-2.27,3.26-13.21,3.81-13.65,1.43-1.14,9.22-.75,11.31,1,.22.19,3.5,4.33,3.56,4.61.6,2.8-.95,5.18-.88,7.67.23,7.32,3.33,13.04,7.61,18.62,17.58,5.16,38.56,5.98,56.3.96-.13-.44-1.03-.89-1.02-.97.05-.39,5.45-4.88,6-5,.07-.01.47.93.92,1-.47-1.9,3.08-5.18,3.08-5.5V0h17c.93,1.14.58.6,1,2-2.8,4.91,2.81,11.3,4.11,15.96.41-.09.81-.97.89-.96.91.16,10.1,9.83,14,12-1.6,2.42,3.65,2.73,4.31,3.07,18.88,9.79,41.1,12.53,50.47,34.65,3.51,8.29,3.71,14.73,4.95,23.1.27,1.82-.51,3.77,2.27,3.18.02.33-.02.67,0,1v147c0,2.1-1.18,3.38-2,5l-4.49,5.01c-7.87,6.2-17.7,2.53-26.52,5.03.04.38,1.03.9,1.01.97-.17.94-1.06,1.83-2,2-.07.01-.59-.97-.97-1.01-3.08,7.78.72,19.99-.99,27.35-.28,1.19-2.57,1.24-3.62,1.56l-192.49-.31c-3.44-6.67,2.67-23.66-2.67-28.61-3.22-2.99-4.08-.96-5.26-.97-.67,0-1.33,0-2,0,1.88-2.9.79-1.73-1.52-1.97-7.27-.76-11.4.71-18.48-3.03-4.74-2.51-5.75-6.67-7.73-11.77-.21-45.96-4.07-95.88-1.26-141.72,1.37-22.32,7.2-41.45,26.99-53.51Z"/>
  </g>
</svg>