<?xml version="1.0" encoding="UTF-8"?>
<svg id="Layer_2" data-name="Layer 2" xmlns="http://www.w3.org/2000/svg" viewBox="0 0 228 253.93">
  <defs>
    <style>
      .cls-1 {
        fill: #e9d8c1;
      }
    </style>
  </defs>
  <g id="Layer_1-2" data-name="Layer 1">
    <path class="cls-1" d="M159,1.88c.12-.15,3.11-1.95,3.33-1.88l38.57,13.95c-1.81,6.47.65,14.7.23,20.48-.16,2.13-2.5,1.17-2.12,1.94,2.88,5.87,1.52,11.34,2.01,18,1.57,21.33,2.83,39.58,16.99,56.51.3.36.69.65,1,1,2.67,3.02,5.17,5.24,8,8,.34.33.68.65,1,1l-.11,132.89-107.9.11V69.88c12.44-21.03,23.06-43.27,36.01-64l.83.89c.93-1.11,1.56-4.09,2.17-4.89ZM175,141.88c1.33-1.73,3.74-3.37,4.48-5.87.51-3.47-1.14-17.08-.41-19.51.2-.65,7.45-4.77-.06-2.62-.27-9.13,1.97-18.95-2.08-26.88-18.83-1.33-10.2,27.01-11.93,38.88-4.46-2.28-9.6-.26-11.99,4-2.54,4.52-2.54,9.47,0,14,.25.44.79.69,1,1,.26.38,1.3,1.03,2,2,.95,14.38-.99,29.14-.04,43.54.15,2.22.84,4.28,1.06,6.47.42-.16.82-1,.98-1.01.51-.05,4.07,7.46,5,9,.24.4-.31,1.78,2.51,4,9.87,7.79,21.99,6.81,31.23-1.29.48-.42.12-1.59.25-1.71.31-.3.73-.7,1-1,.53-.6.56.14,2.39-2.57,5.03-7.43,4.34-16.63,2.56-25.45-.45-.02-.88,1.03-.95,1.01-4.48-.79-6.18-2.4-10,2-4.45,5.13.3,12.44-4,18-5.06,5.84-12.8,5.49-17-1l-.89-48.57c.12-1.5,1.88-3.21,2.89-4.43.69-.84,1.65-1.54,2-2Z"/>
    <path class="cls-1" d="M0,252.88L.06,124.44c.21-1.89,1.12-3.26,2.44-4.56,1.77-1.74,10.25-7,11-8.01,1-1.35,8.92-17.95,9.7-20.32,7.72-23.68,3.47-44.71,4.95-68.05.14-2.26.52-6.92.9-8.9.65-3.31,20.62-7.66,24.95-9.24,4.73-1.73,11.68-8.09,16.02-2.73,3.87,4.79,7.82,16.68,11.02,22.44.58,1.05,1.99,1.14,2.74,2.48,1.23,2.22.76,6.68,5.23,7.31,6.06,12.02,13.19,24.38,20,36l-1.45,183.05-106.55-.05c-.25-.32-.78-.56-1-1ZM25,159.88c-.88.32-2.82.76-3.03,1.67,2.3,23.15-9.19,58.57,20.04,67.82,10.04,3.18,25.52,1.43,33.95-5.03.65-.5,4.47-5.87,4.04-7.46.23-.4.86-.7,1-1,3.87-4.19,4.65-10.9,5.04-16.46.35-5.03.62-34.95-.55-37.57-.4-.89-1.62-1.52-2.49-1.98-.62-.33-1.21-1.35-2.39-1.06-14.41,2.39-43.15-3.43-55.61,1.06Z"/>
    <path class="cls-1" d="M64,216.88c-5.44,2.1-17.33,1.02-22.56-1.9-10.02-5.61-5.38-17.69-5.32-26.98,12.09-2.61,24.64.05,36.88-1.11v16.5c0,3.85-5.39,12.1-9,13.5Z"/>
  </g>
</svg>